<?xml version="1.0" encoding="UTF-8"?>
<!DOCTYPE svg PUBLIC "-//W3C//DTD SVG 1.1//EN" "http://www.w3.org/Graphics/SVG/1.1/DTD/svg11.dtd">
<!-- Creator: CorelDRAW X7 -->
<svg xmlns="http://www.w3.org/2000/svg" xml:space="preserve" width="4.2332mm" height="1.6932mm" version="1.1" style="shape-rendering:geometricPrecision; text-rendering:geometricPrecision; image-rendering:optimizeQuality; fill-rule:evenodd; clip-rule:evenodd"
viewBox="0 0 423 169"
 xmlns:xlink="http://www.w3.org/1999/xlink">
 <defs>
  <style type="text/css">
   <![CDATA[
    .fil0 {fill:#807F7F}
   ]]>
  </style>
 </defs>
 <g id="图层_x0020_1">
  <metadata id="CorelCorpID_0Corel-Layer"/>
  <path class="fil0" d="M34 65c0,0 -10,-23 10,-39 25,-13 41,5 41,5 8,-4 32,-16 51,1 17,19 -1,39 -1,39 0,0 10,20 -9,31 -21,12 -40,-1 -41,-20 0,-11 16,-15 17,-16 -1,1 -3,6 -3,6 -6,12 6,24 17,15 10,-10 8,-24 -2,-37 -10,-12 -45,-13 -56,12 -11,25 4,46 21,51 18,4 31,8 72,-15 42,-23 65,-29 112,3 42,31 77,10 77,10 -8,4 -35,27 -82,2 -47,-24 -76,-2 -76,-2l-28 20c-11,9 -35,18 -66,18 -33,1 -62,-32 -66,-50 -5,-18 12,-34 12,-34z"/>
  <path class="fil0" d="M276 79c2,-16 24,-28 40,-17 16,11 10,28 6,31 -5,5 -17,5 -17,-5 2,-8 11,-4 11,-4 0,0 6,-5 -4,-13 -10,-8 -22,-2 -26,6 -2,8 -2,22 22,28 25,0 28,-14 28,-14 6,8 13,1 24,3 9,0 25,9 35,12 10,3 21,-8 21,-8 0,0 -2,9 -13,13 -14,4 -38,-12 -49,-12 -11,0 -31,11 -31,11 -35,11 -50,-14 -47,-31z"/>
 </g>
</svg>
